<svg viewBox="0 0 344 50" fill="none" xmlns="http://www.w3.org/2000/svg">
<path d="M11.9501 8.42715H7.62593L0.157198 26.2215H4.16009L3.53753 33.8359H1.33633L0 41.771L7.86183 33.8359H5.5427L10.4565 23.2558L4.40759 23.2557L11.9501 8.42715Z" fill="#3b372f"/>
<path d="M19.4664 9.73306C19.4664 9.73306 21.4525 15.3154 17.4372 20.8697C13.9691 25.5833 13.8104 29.8936 13.8104 29.8936C13.8104 29.8936 11.8434 24.6554 15.7964 19.0429C19.5684 13.9061 19.5003 11.5376 19.4664 9.73306Z" fill="#E65451"/>
<path d="M28.4582 20.6314C28.4582 20.6314 31.4001 25.1171 26.8826 31.1828C23.2309 35.5874 23.336 39.6045 23.336 39.6045C23.336 39.6045 21.3229 34.9991 25.0309 30.2381C28.8029 25.1013 28.4921 22.4359 28.4582 20.6314Z" fill="#E65451"/>
<path d="M20.7188 7.9285C20.7188 7.9285 31.5066 15.6056 24.8658 26.5923C18.225 37.5789 21.5817 40.3112 22.4025 42.043C22.4025 42.043 9.43663 37.4838 18.3439 24.0249C23.9513 16.2555 21.4536 9.74543 20.7188 7.9285Z" fill="#E65451"/>
<path d="M63.9703 9.31292C59.1195 9.31292 55.2859 10.4051 52.4674 12.5885C50.896 13.8227 49.6976 15.379 48.8731 17.2584C48.0486 19.1388 47.6363 21.142 47.6363 23.2683C47.6363 25.9454 48.2785 28.2708 49.5629 30.2455C50.8474 32.2011 52.5974 33.6964 54.811 34.7305C57.0255 35.7655 59.4654 36.2829 62.1296 36.2829C63.7786 36.2829 65.293 36.0838 66.6737 35.6844C69.2416 36.7823 70.527 38.2205 70.527 39.9998C70.527 41.6457 69.752 42.7865 68.2021 43.4203C66.6522 44.054 64.9022 44.3714 62.9513 44.3714C61.7846 44.3714 60.5414 44.1817 59.2214 43.8034C57.9202 43.425 57.2704 42.8199 57.2704 41.987C57.2704 41.722 57.3658 41.4284 57.5575 41.1073C57.7107 40.7861 57.7874 40.5488 57.7874 40.3982C57.7874 39.3947 56.704 38.8934 54.538 38.8934C52.9086 38.8934 51.4222 39.2926 50.0808 40.0913C48.7384 40.8891 48.0682 42.0479 48.0682 43.568C48.0682 45.8296 49.7163 47.3401 53.0143 48.1007C56.33 48.8802 59.7234 49.27 63.1934 49.27C65.609 49.27 68.0535 49.0279 70.527 48.5438C72.9996 48.0597 75.1422 47.1476 76.9539 45.8096C78.7655 44.4705 79.6713 42.6521 79.6713 40.3553C79.6713 38.4759 79.0076 36.9759 77.6811 35.856C76.3537 34.7162 74.6991 33.9194 72.7191 33.4639C76.7014 30.9002 78.6935 27.3024 78.6935 22.6698C78.6935 19.4227 77.6054 16.6418 75.431 14.325H76.9884C78.084 14.2878 78.9534 14.1448 79.5974 13.898C80.2406 13.6511 80.5631 13.1003 80.5631 12.2464C80.5631 11.1828 80.2257 10.5185 79.5536 10.2527C78.8804 9.98676 77.8998 9.85428 76.6126 9.85428H73.3539L67.9675 9.54069L63.9703 9.31292ZM67.3347 29.0351C66.5297 31.0574 65.0528 32.0677 62.9064 32.0677C60.9311 32.0677 59.5804 31.0908 58.8512 29.1342C58.1417 27.1977 57.7874 25.0247 57.7874 22.6126C57.7874 20.373 58.2193 18.2086 59.0821 16.1195C59.944 14.0314 61.3341 12.9869 63.2514 12.9869C64.5741 12.9869 65.6286 13.4901 66.4148 14.4966C67.2197 15.5029 67.7759 16.718 68.0825 18.1419C68.3891 19.5466 68.5424 20.9038 68.5424 22.2142C68.5424 24.7398 68.1395 27.0128 67.3347 29.0351ZM112.079 20.6475C112.079 18.465 111.725 16.6418 111.016 15.1798C110.306 13.7179 109.069 12.4837 107.306 11.4773C104.756 10.0344 101.478 9.31292 97.471 9.31292C96.1296 9.31292 94.5096 9.45112 92.6119 9.72554C90.7132 10.001 89.0166 10.4994 87.5219 11.2209C86.0261 11.9423 85.2783 12.9202 85.2783 14.1544C85.2783 15.1036 85.6475 15.8108 86.386 16.2759C87.1236 16.7419 87.9715 16.9735 88.9306 16.9735C89.7355 16.9735 90.416 16.8219 90.9722 16.5179C91.5285 16.2148 92.1707 15.7307 92.8989 15.0654C93.6271 14.4393 94.2506 13.9743 94.7685 13.6702C95.3051 13.3672 95.9762 13.2147 96.7812 13.2147C98.5834 13.2147 99.9445 13.7798 100.864 14.9092C101.785 16.0386 102.245 17.5252 102.245 19.3665H100.232C98.4302 19.3665 96.5512 19.5276 94.5956 19.8507C92.6595 20.1738 90.8189 20.7237 89.0745 21.5023C87.3489 22.2619 85.9299 23.3245 84.8184 24.6921C83.7068 26.0588 83.1507 27.7209 83.1507 29.6756C83.1507 31.594 83.6396 33.2361 84.6174 34.6027C85.5952 35.9694 86.889 36.9997 88.4996 37.6925C90.1094 38.3854 91.864 38.7323 93.7617 38.7323C97.9983 38.7323 101.047 37.2322 102.906 34.232C102.964 35.2766 103.05 36.0266 103.165 36.4822C103.28 36.9377 103.554 37.2846 103.985 37.5219C104.416 37.7592 105.11 37.8774 106.069 37.8774H111.964C112.961 37.8774 113.748 37.7544 114.323 37.5076C114.878 37.2989 115.157 36.7862 115.157 35.9694C115.157 35.268 114.658 34.6695 113.661 34.1758C113.028 33.9099 112.597 33.5392 112.367 33.0646C112.176 32.5518 112.079 31.4797 112.079 29.8471V20.6475ZM102.532 23.0405V24.8913C102.532 26.3724 102.47 27.5493 102.346 28.4223C102.221 29.2962 101.871 30.1978 101.296 31.128C100.049 33.0073 98.5451 33.9481 96.7812 33.9481C95.6313 33.9481 94.7255 33.5344 94.0636 32.7091C93.4027 31.8828 93.0718 30.8907 93.0718 29.7328C93.0718 27.5493 93.8954 25.8882 95.5444 24.7484C97.1934 23.6095 99.1677 23.0405 101.468 23.0405H102.532ZM166.573 19.9927C166.573 16.2902 165.7 13.6236 163.956 11.99C163.035 11.117 161.913 10.4518 160.59 9.99622C159.267 9.54069 157.915 9.31292 156.535 9.31292C151.971 9.31292 148.615 10.8892 146.468 14.041C145.605 12.5028 144.436 11.3305 142.96 10.5233C141.484 9.71608 139.845 9.31292 138.043 9.31292C134.189 9.31292 131.036 10.7187 128.583 13.5282C128.41 12.3512 128.141 11.3544 127.776 10.5376C127.411 9.7218 126.787 9.31292 125.903 9.31292C125.23 9.31292 124.145 9.54069 122.646 9.99622C121.147 10.4518 119.803 11.0122 118.612 11.6765C117.42 12.3417 116.824 12.9964 116.824 13.6416C116.824 14.344 117.237 14.8663 118.061 15.2084C118.846 15.5878 119.341 16.0338 119.542 16.5465C119.743 17.0592 119.844 17.9704 119.844 19.2808V30.4446C119.844 32.0019 119.758 33.0274 119.585 33.5201C119.47 33.7479 119.096 34.0805 118.463 34.517C117.773 34.9353 117.428 35.4386 117.428 36.0266C117.428 37.2418 118.168 37.8498 119.647 37.8498H129.616C131.115 37.8498 131.864 37.2418 131.864 36.0266C131.864 35.4386 131.507 34.9353 130.795 34.517C130.184 34.0615 129.821 33.7298 129.706 33.5201C129.534 33.0274 129.448 32.0019 129.448 30.4446V21.6729C129.448 20.4959 129.511 19.499 129.634 18.6823C129.758 17.8664 130.05 17.1545 130.509 16.5465C131.54 15.237 132.898 14.5814 134.579 14.5814C135.745 14.5814 136.605 14.9235 137.159 15.6068C137.732 16.2902 138.086 17.0974 138.219 18.0275C138.334 18.9386 138.391 20.0594 138.391 21.3879V30.4446C138.391 32.0019 138.305 33.0274 138.133 33.5201C138.018 33.7298 137.656 34.0615 137.044 34.517C136.332 34.9353 135.976 35.4386 135.976 36.0266C135.976 37.2418 136.716 37.8498 138.195 37.8498H148.193C149.673 37.8498 150.412 37.2418 150.412 36.0266C150.412 35.4386 150.067 34.9353 149.376 34.517C148.744 34.0805 148.371 33.7479 148.256 33.5201C148.083 33.0274 147.997 32.0019 147.997 30.4446V21.6729C147.997 20.4959 148.058 19.499 148.184 18.6823C148.308 17.8664 148.6 17.1545 149.06 16.5465C150.095 15.237 151.456 14.5814 153.144 14.5814C154.313 14.5814 155.176 14.9235 155.732 15.6068C156.307 16.2902 156.661 17.0974 156.796 18.0275C156.911 18.9386 156.968 20.0594 156.968 21.3879V30.4446C156.968 32.0019 156.891 33.0274 156.738 33.5201C156.623 33.7298 156.249 34.0615 155.617 34.517C154.908 34.9353 154.552 35.4386 154.552 36.0266C154.552 37.2418 155.3 37.8498 156.796 37.8498H166.745C168.241 37.8498 168.989 37.2418 168.989 36.0266C168.989 35.4386 168.633 34.9353 167.925 34.517C167.292 34.0805 166.918 33.7479 166.803 33.5201C166.65 33.0274 166.573 32.0019 166.573 30.4446V19.9927ZM220.75 19.9927C220.75 16.2902 219.877 13.6236 218.133 11.99C217.212 11.117 216.09 10.4518 214.767 9.99622C213.444 9.54069 212.092 9.31292 210.712 9.31292C206.148 9.31292 202.792 10.8892 200.645 14.041C199.782 12.5028 198.613 11.3305 197.137 10.5233C195.661 9.71608 194.022 9.31292 192.22 9.31292C188.366 9.31292 185.213 10.7187 182.76 13.5282C182.587 12.3512 182.318 11.3544 181.954 10.5376C181.588 9.7218 180.964 9.31292 180.08 9.31292C179.407 9.31292 178.322 9.54069 176.823 9.99622C175.324 10.4518 173.98 11.0122 172.789 11.6765C171.597 12.3417 171.001 12.9964 171.001 13.6416C171.001 14.344 171.414 14.8663 172.238 15.2084C173.024 15.5878 173.518 16.0338 173.719 16.5465C173.92 17.0592 174.021 17.9704 174.021 19.2808V30.4446C174.021 32.0019 173.935 33.0274 173.762 33.5201C173.647 33.7479 173.273 34.0805 172.641 34.517C171.95 34.9353 171.605 35.4386 171.605 36.0266C171.605 37.2418 172.345 37.8498 173.824 37.8498H183.793C185.292 37.8498 186.041 37.2418 186.041 36.0266C186.041 35.4386 185.684 34.9353 184.973 34.517C184.361 34.0615 183.998 33.7298 183.883 33.5201C183.711 33.0274 183.626 32.0019 183.626 30.4446V21.6729C183.626 20.4959 183.688 19.499 183.812 18.6823C183.935 17.8664 184.227 17.1545 184.686 16.5465C185.717 15.237 187.074 14.5814 188.756 14.5814C189.922 14.5814 190.782 14.9235 191.336 15.6068C191.909 16.2902 192.263 17.0974 192.396 18.0275C192.511 18.9386 192.568 20.0594 192.568 21.3879V30.4446C192.568 32.0019 192.482 33.0274 192.31 33.5201C192.195 33.7298 191.833 34.0615 191.221 34.517C190.509 34.9353 190.153 35.4386 190.153 36.0266C190.153 37.2418 190.893 37.8498 192.372 37.8498H202.37C203.85 37.8498 204.589 37.2418 204.589 36.0266C204.589 35.4386 204.244 34.9353 203.553 34.517C202.921 34.0805 202.548 33.7479 202.432 33.5201C202.26 33.0274 202.174 32.0019 202.174 30.4446V21.6729C202.174 20.4959 202.235 19.499 202.361 18.6823C202.485 17.8664 202.777 17.1545 203.237 16.5465C204.272 15.237 205.633 14.5814 207.321 14.5814C208.49 14.5814 209.353 14.9235 209.909 15.6068C210.484 16.2902 210.838 17.0974 210.973 18.0275C211.088 18.9386 211.145 20.0594 211.145 21.3879V30.4446C211.145 32.0019 211.068 33.0274 210.915 33.5201C210.8 33.7298 210.426 34.0615 209.794 34.517C209.085 34.9353 208.729 35.4386 208.729 36.0266C208.729 37.2418 209.477 37.8498 210.973 37.8498H220.922C222.418 37.8498 223.166 37.2418 223.166 36.0266C223.166 35.4386 222.81 34.9353 222.102 34.517C221.469 34.0805 221.095 33.7479 220.98 33.5201C220.827 33.0274 220.75 32.0019 220.75 30.4446V19.9927ZM254.596 20.6475C254.596 18.465 254.242 16.6418 253.532 15.1798C252.823 13.7179 251.587 12.4837 249.823 11.4773C247.273 10.0344 243.994 9.31292 239.988 9.31292C238.646 9.31292 237.026 9.45112 235.128 9.72554C233.23 10.001 231.534 10.4994 230.038 11.2209C228.543 11.9423 227.796 12.9202 227.796 14.1544C227.796 15.1036 228.164 15.8108 228.903 16.2759C229.64 16.7419 230.489 16.9735 231.447 16.9735C232.253 16.9735 232.933 16.8219 233.489 16.5179C234.045 16.2148 234.687 15.7307 235.415 15.0654C236.145 14.4393 236.767 13.9743 237.285 13.6702C237.822 13.3672 238.493 13.2147 239.298 13.2147C241.1 13.2147 242.461 13.7798 243.381 14.9092C244.302 16.0386 244.762 17.5252 244.762 19.3665H242.749C240.947 19.3665 239.068 19.5276 237.112 19.8507C235.176 20.1738 233.335 20.7237 231.591 21.5023C229.865 22.2619 228.446 23.3245 227.335 24.6921C226.223 26.0588 225.667 27.7209 225.667 29.6756C225.667 31.594 226.156 33.2361 227.134 34.6027C228.112 35.9694 229.405 36.9997 231.016 37.6925C232.626 38.3854 234.381 38.7323 236.278 38.7323C240.515 38.7323 243.563 37.2322 245.423 34.232C245.48 35.2766 245.566 36.0266 245.681 36.4822C245.796 36.9377 246.07 37.2846 246.501 37.5219C246.932 37.7592 247.628 37.8774 248.586 37.8774H254.481C255.477 37.8774 256.264 37.7544 256.839 37.5076C257.395 37.2989 257.673 36.7862 257.673 35.9694C257.673 35.268 257.174 34.6695 256.178 34.1758C255.546 33.9099 255.114 33.5392 254.884 33.0646C254.692 32.5518 254.596 31.4797 254.596 29.8471V20.6475ZM245.05 23.0405V24.8913C245.05 26.3724 244.987 27.5493 244.863 28.4223C244.737 29.2962 244.388 30.1978 243.813 31.128C242.566 33.0073 241.062 33.9481 239.298 33.9481C238.148 33.9481 237.242 33.5344 236.58 32.7091C235.919 31.8828 235.588 30.8907 235.588 29.7328C235.588 27.5493 236.412 25.8882 238.061 24.7484C239.71 23.6095 241.684 23.0405 243.985 23.0405H245.05ZM272.597 14.4107H276.049C278.406 14.4107 279.585 13.6511 279.585 12.132C279.585 11.1075 279.269 10.4623 278.636 10.1955C278.003 9.9305 277.102 9.79706 275.933 9.79706H272.454V2.79129C272.454 1.53801 272.295 0.759422 271.978 0.455368C271.661 0.152336 270.83 -0.000164032 269.485 -0.000164032C268.352 -0.000164032 267.588 0.195251 267.194 0.584034C266.801 0.972889 266.488 1.74671 266.258 2.90469C265.855 5.31683 265.298 7.08183 264.587 8.20262C264.184 8.82878 263.689 9.25189 263.104 9.46924C262.517 9.68842 261.697 9.87336 260.64 10.0248C259.891 10.1583 259.309 10.3718 258.897 10.6653C258.484 10.9607 258.277 11.4487 258.277 12.132C258.277 13.1194 258.579 13.7464 259.183 14.0123C259.787 14.2783 260.664 14.4107 261.814 14.4107H262.993V33.3495C262.993 34.679 263.147 35.6569 263.454 36.2829C263.762 36.9091 264.262 37.318 264.954 37.5076C265.626 37.7354 266.624 37.8498 267.95 37.8498H276.042C278.673 37.8498 279.988 37.1093 279.988 35.6282C279.988 34.66 279.672 34.0433 279.039 33.7765C278.406 33.4924 277.39 33.3495 275.991 33.3495C274.572 33.3495 273.652 33.0417 273.23 32.4241C272.809 31.8075 272.597 30.7582 272.597 29.2772V14.4107ZM295.401 32.324C294.021 31.1661 293.12 29.6574 292.699 27.7961C293.504 27.6818 294.673 27.516 296.207 27.2977C297.74 27.0795 299.115 26.8517 300.333 26.6144C301.55 26.3771 302.677 26.0969 303.712 25.7738C305.917 25.0524 307.81 24.0364 309.392 22.7269C310.973 21.4165 311.764 19.784 311.764 17.8283C311.764 15.9108 311.155 14.3107 309.938 13.0298C308.72 11.7479 307.177 10.8083 305.308 10.2098C303.439 9.61221 301.575 9.31292 299.715 9.31292C296.609 9.31292 293.695 9.93908 290.973 11.1923C288.251 12.4837 286.07 14.3163 284.431 16.6894C282.792 19.0625 281.973 21.8159 281.973 24.9485C281.973 27.0366 282.408 28.935 283.28 30.6438C284.152 32.3527 285.335 33.8051 286.829 35.0011C288.324 36.1972 290.034 37.1188 291.96 37.764C293.886 38.4092 295.835 38.7323 297.809 38.7323C301.564 38.7323 304.822 37.906 307.581 36.2544C308.658 35.6664 309.724 34.8544 310.782 33.8194C311.839 32.7853 312.368 31.7932 312.368 30.843C312.368 30.4065 312.19 30.0368 311.836 29.7328C311.481 29.4297 311.093 29.2772 310.671 29.2772C310.134 29.2772 309.761 29.3535 309.55 29.5049C309.338 29.6574 308.907 30.0082 308.256 30.559C306.952 31.6979 305.672 32.5661 304.417 33.1646C303.161 33.7622 301.785 34.0615 300.29 34.0615C298.411 34.0615 296.782 33.483 295.401 32.324ZM299.322 22.015C297.122 23.0786 294.742 23.7047 292.181 23.8944C292.181 21.2174 292.783 18.8014 293.988 16.6466C295.192 14.4918 296.875 13.4138 299.035 13.4138C300.181 13.4138 301.056 13.756 301.658 14.4393C302.26 15.1226 302.562 16.0443 302.562 17.2022C302.562 19.3475 301.481 20.9514 299.322 22.015ZM327.177 30.8754C325.912 28.9799 325.28 26.7526 325.28 24.1927H325.222C325.24 22.6765 325.438 21.1078 325.812 19.4866C326.185 17.8655 326.828 16.476 327.738 15.32C328.649 14.1629 329.852 13.5845 331.347 13.5845C332.324 13.5845 333.106 13.8084 333.691 14.2544C334.275 14.7005 334.918 15.3742 335.618 16.2759C336.317 17.1783 336.944 17.8379 337.5 18.2553C338.057 18.6737 338.804 18.8824 339.744 18.8824C340.683 18.8824 341.488 18.5927 342.16 18.0132C342.83 17.4347 343.165 16.6799 343.165 15.7498C343.165 14.2687 342.476 13.0536 341.096 12.1034C339.695 11.1361 338.043 10.4289 336.135 9.98199C334.227 9.53592 332.545 9.31292 331.089 9.31292C328.155 9.31292 325.461 9.93526 323.008 11.178C320.553 12.4217 318.617 14.1925 317.199 16.4893C315.78 18.7871 315.071 21.4165 315.071 24.3786C315.071 26.5429 315.492 28.5223 316.336 30.3169C317.18 32.1106 318.335 33.6297 319.802 34.8734C321.267 36.1172 322.959 37.0711 324.877 37.7354C326.794 38.3997 328.807 38.7323 330.916 38.7323C334.194 38.7323 337.396 37.6916 340.52 35.6101C342.725 34.0319 343.827 32.5299 343.827 31.1032C343.827 30.6086 343.665 30.1854 343.338 29.8328C343.012 29.4821 342.6 29.3058 342.102 29.3058C341.47 29.3058 340.664 29.7899 339.686 30.7582C338.766 31.6702 337.712 32.3822 336.524 32.895C335.334 33.4448 334.156 33.7203 332.986 33.7203H332.756C330.302 33.7203 328.442 32.772 327.177 30.8754Z" fill="#3b372f"/>
</svg>
