<svg width="79" height="92" viewBox="0 0 79 92" fill="none" xmlns="http://www.w3.org/2000/svg">
<path d="M32.1112 1.33833H20.4917L0.422409 49.1537H11.1786L9.50575 69.6145H3.59086L0 90.937L21.1256 69.6145H14.8939L28.0977 41.1845L11.8437 41.1843L32.1112 1.33833Z" fill="white"/>
<path d="M52.3079 4.84942C52.3079 4.84942 57.6449 19.8499 46.8554 34.7749C37.5363 47.4407 37.1096 59.0229 37.1096 59.0229C37.1096 59.0229 31.8242 44.9475 42.4464 29.866C52.582 16.0629 52.3991 9.69846 52.3079 4.84942Z" fill="#EE2723"/>
<path d="M76.4704 34.1357C76.4704 34.1357 84.3756 46.1893 72.2364 62.4886C62.4241 74.3243 62.7064 85.1187 62.7064 85.1187C62.7064 85.1187 57.2969 72.7436 67.2608 59.95C77.3965 46.1469 76.5615 38.9847 76.4704 34.1357Z" fill="#EE2723"/>
<path d="M55.6731 7.62939e-06C55.6731 7.62939e-06 84.6611 20.6291 66.8165 50.1516C48.9719 79.674 57.9917 87.016 60.1974 91.6694C60.1974 91.6694 25.3566 79.4185 49.2915 43.2528C64.3591 22.3755 57.6476 4.88229 55.6731 7.62939e-06Z" fill="#EE2723"/>
</svg>
